<?xml version="1.0" standalone="no"?>
<!DOCTYPE svg PUBLIC "-//W3C//DTD SVG 20010904//EN"
 "http://www.w3.org/TR/2001/REC-SVG-20010904/DTD/svg10.dtd">
<svg version="1.0" xmlns="http://www.w3.org/2000/svg"
 width="400.000000pt" height="442.000000pt" viewBox="0 0 400.000000 442.000000"
 preserveAspectRatio="xMidYMid meet">

<g transform="translate(0.000000,442.000000) scale(0.100000,-0.100000)"
fill="#000000" stroke="none">
<path d="M1880 4131 c-103 -8 -229 -43 -317 -89 -160 -84 -194 -104 -209 -128
-9 -14 -31 -32 -48 -41 -17 -9 -89 -70 -159 -136 -156 -146 -176 -180 -266
-432 -11 -33 -32 -115 -46 -182 -34 -165 -32 -281 4 -259 6 4 15 -3 20 -17 6
-14 15 -28 20 -32 6 -3 11 -21 11 -39 0 -41 21 -60 55 -52 18 5 31 0 46 -15
l21 -21 -21 -22 c-27 -28 -26 -41 1 -60 23 -17 32 -58 44 -216 5 -56 3 -69
-16 -93 -13 -16 -31 -27 -46 -27 -38 0 -55 -53 -57 -174 -1 -110 16 -207 39
-226 8 -7 14 -30 14 -51 0 -31 4 -39 18 -39 11 0 24 11 30 25 14 30 27 32 50
5 31 -37 10 -192 -22 -160 -18 18 -46 11 -58 -15 -9 -19 -8 -29 5 -49 12 -18
16 -49 16 -130 -1 -58 -4 -106 -8 -106 -26 0 -81 112 -111 228 -11 40 -23 78
-27 85 -4 6 -9 89 -10 183 -2 93 -7 189 -11 213 -4 23 -3 87 2 141 9 90 8 102
-9 120 -25 27 -41 25 -73 -9 -28 -31 -58 -41 -79 -28 -15 10 -17 61 -3 87 17
32 -10 37 -35 7 -11 -15 -30 -27 -41 -27 -46 0 -55 -40 -29 -128 16 -53 39
-68 50 -33 3 10 15 27 26 37 20 18 21 18 35 -1 10 -12 13 -31 10 -50 -4 -17
-1 -64 5 -105 6 -41 12 -95 14 -120 12 -144 26 -232 41 -261 9 -19 17 -59 18
-94 2 -76 42 -150 92 -171 44 -19 59 -45 74 -129 7 -38 23 -101 35 -140 29
-91 38 -144 39 -233 l1 -74 -40 -14 c-22 -9 -55 -20 -73 -25 -39 -12 -126 -52
-144 -66 -16 -12 -36 -17 -273 -62 -50 -9 -65 -18 -65 -38 0 -26 -62 -113 -81
-113 -10 0 -20 -4 -23 -9 -4 -5 -32 -17 -64 -27 -31 -10 -78 -28 -104 -41 -26
-13 -50 -22 -55 -21 -16 5 -73 -25 -73 -38 0 -8 -4 -14 -10 -14 -6 0 -10 -70
-10 -190 l0 -190 2000 0 2000 0 0 170 c0 107 -4 170 -10 170 -6 0 -10 32 -10
75 0 41 -3 75 -7 75 -4 0 -23 -15 -43 -34 -51 -49 -70 -52 -105 -16 -16 16
-37 30 -47 30 -10 0 -36 9 -58 20 -22 11 -45 20 -51 20 -7 0 -20 7 -30 16 -11
10 -38 17 -68 18 -31 1 -56 8 -68 19 -15 12 -37 17 -86 17 -49 0 -82 7 -129
27 -81 34 -81 34 -114 99 -33 65 -64 85 -182 115 -42 10 -80 23 -85 28 -4 4
-3 37 3 72 7 35 15 87 20 114 4 28 15 68 23 90 8 22 22 67 30 100 9 33 20 79
26 102 6 22 29 63 51 90 62 74 83 125 76 178 -5 29 -2 62 9 97 9 29 20 109 25
178 14 171 28 314 36 344 3 13 1 33 -5 45 -15 27 -50 46 -63 33 -5 -5 -11 -68
-13 -138 -7 -333 -42 -636 -79 -672 -20 -21 -20 -23 -2 143 41 368 45 508 17
593 -49 147 -65 248 -42 276 7 8 25 18 41 21 27 6 47 29 88 101 49 87 59 422
17 594 -46 189 -112 342 -191 446 -52 68 -170 182 -274 265 -52 42 -200 118
-280 143 -30 10 -80 29 -110 42 -33 15 -73 24 -100 23 -25 0 -88 2 -140 4 -52
3 -138 2 -190 -2z m-531 -823 c-19 -36 -41 -58 -59 -58 -19 0 -70 -67 -70 -91
0 -7 7 -23 15 -33 30 -40 8 -95 -33 -82 -27 9 -89 -20 -97 -44 -9 -30 -39 -21
-43 12 -2 14 8 49 22 77 14 28 26 60 26 71 0 32 25 74 65 108 29 26 39 30 59
22 16 -6 27 -5 35 3 7 7 29 17 49 23 20 7 38 12 40 13 1 1 -3 -9 -9 -21z
m-291 -410 c-5 -32 -28 -35 -28 -4 0 17 5 26 16 26 10 0 14 -7 12 -22z m287
-838 c11 -17 -5 -32 -21 -19 -8 6 -14 15 -14 20 0 12 27 11 35 -1z m-101 -66
c8 -21 -1 -34 -23 -34 -25 0 -32 10 -20 31 12 23 35 25 43 3z m696 -304 c21
-29 25 -31 79 -28 l56 3 -1 -42 c-1 -64 -45 -105 -114 -108 -19 -1 -70 -15
-112 -30 -63 -23 -79 -33 -89 -57 -14 -35 -55 -69 -75 -61 -27 10 -16 78 26
160 29 55 59 95 103 136 71 66 96 71 127 27z m410 -200 c0 -5 -2 -10 -4 -10
-3 0 -8 5 -11 10 -3 6 -1 10 4 10 6 0 11 -4 11 -10z m-300 -56 c0 -8 -9 -14
-20 -14 -19 0 -27 19 -14 33 10 9 34 -4 34 -19z"/>
<path d="M580 2112 c0 -24 29 -82 40 -82 20 0 40 13 40 26 0 14 -58 73 -72 74
-5 0 -8 -8 -8 -18z"/>
<path d="M550 1515 c0 -43 1 -45 21 -35 26 14 24 73 -3 78 -15 3 -18 -4 -18
-43z"/>
<path d="M520 1439 c-14 -24 -9 -32 14 -23 17 7 23 44 6 44 -5 0 -14 -9 -20
-21z"/>
<path d="M517 1077 c-9 -23 8 -40 22 -23 13 15 7 36 -9 36 -4 0 -10 -6 -13
-13z"/>
<path d="M510 951 c0 -21 6 -32 20 -36 40 -13 54 19 22 48 -27 25 -42 21 -42
-12z"/>
<path d="M420 920 c0 -5 5 -10 10 -10 6 0 10 5 10 10 0 6 -4 10 -10 10 -5 0
-10 -4 -10 -10z"/>
</g>
</svg>
