<?xml version="1.0" standalone="no"?>
<!DOCTYPE svg PUBLIC "-//W3C//DTD SVG 20010904//EN"
 "http://www.w3.org/TR/2001/REC-SVG-20010904/DTD/svg10.dtd">
<svg version="1.0" xmlns="http://www.w3.org/2000/svg"
 width="62.000000pt" height="62.000000pt" viewBox="0 0 62.000000 62.000000"
 preserveAspectRatio="xMidYMid meet">

<g transform="translate(0.000000,62.000000) scale(0.100000,-0.100000)"
fill="#000000" stroke="none">
<path d="M107 388 c6 -36 -22 -163 -35 -160 -7 1 -12 -3 -12 -8 0 -7 25 -10
68 -8 65 3 67 4 70 31 2 15 7 27 12 27 12 0 23 -37 15 -50 -5 -8 14 -10 57 -8
56 3 63 5 66 25 2 12 10 27 18 33 24 21 17 40 -17 40 -19 0 -28 -4 -23 -11 3
-6 0 -15 -7 -20 -10 -6 -11 -9 -1 -9 6 0 12 -4 12 -10 0 -5 -8 -10 -18 -10
-17 0 -18 5 -9 60 10 63 13 66 37 50 13 -9 13 -11 0 -21 -13 -8 -12 -10 4 -7
19 3 41 53 30 70 -7 12 -94 10 -94 -2 0 -5 4 -10 9 -10 9 0 -11 -146 -22 -157
-8 -7 -10 19 -11 112 -1 60 -1 60 -32 63 -22 2 -33 -2 -38 -13 -3 -9 -2 -13 4
-10 13 8 13 -9 -1 -78 -12 -56 -12 -57 -46 -57 -32 0 -35 2 -29 23 3 13 8 49
12 80 6 47 4 57 -8 57 -10 0 -14 -7 -11 -22z m123 -53 c0 -14 -4 -25 -9 -25
-4 0 -6 11 -3 25 2 14 6 25 8 25 2 0 4 -11 4 -25z"/>
<path d="M390 400 c0 -5 4 -10 9 -10 12 0 -18 -163 -32 -172 -7 -4 12 -8 41
-8 49 0 52 1 52 25 0 14 6 28 14 31 8 3 16 14 19 25 4 15 0 19 -24 19 -18 0
-29 -5 -29 -14 0 -8 -6 -17 -12 -19 -10 -4 -10 -6 0 -6 19 -1 14 -21 -6 -21
-17 0 -18 5 -9 59 8 49 13 59 28 58 21 -1 26 -23 7 -30 -8 -3 -7 -6 4 -6 20
-1 23 4 33 47 l7 32 -51 0 c-28 0 -51 -4 -51 -10z"/>
</g>
</svg>
